<svg width="60" height="60" viewBox="0 0 60 60" fill="none" xmlns="http://www.w3.org/2000/svg">
<circle cx="30" cy="30" r="30" fill="url(#paint0_linear_203_451)"/>
<path fill-rule="evenodd" clip-rule="evenodd" d="M30 10C24.5683 10 23.8872 10.023 21.754 10.1204C19.6253 10.2174 18.1714 10.5556 16.8992 11.05C15.5841 11.561 14.4687 12.2449 13.3568 13.3568C12.2449 14.4687 11.561 15.5841 11.05 16.8992C10.5556 18.1714 10.2174 19.6253 10.1204 21.754C10.023 23.8872 10 24.5683 10 30C10 35.4317 10.023 36.1128 10.1204 38.246C10.2174 40.3747 10.5556 41.8286 11.05 43.1008C11.561 44.4159 12.2449 45.5313 13.3568 46.6432C14.4687 47.7551 15.5841 48.439 16.8992 48.9501C18.1714 49.4444 19.6253 49.7826 21.754 49.8796C23.8872 49.977 24.5683 50 30 50C35.4317 50 36.1128 49.977 38.246 49.8796C40.3747 49.7826 41.8286 49.4444 43.1008 48.9501C44.4159 48.439 45.5313 47.7551 46.6432 46.6432C47.7551 45.5313 48.439 44.4159 48.9501 43.1008C49.4444 41.8286 49.7826 40.3747 49.8796 38.246C49.977 36.1128 50 35.4317 50 30C50 24.5683 49.977 23.8872 49.8796 21.754C49.7826 19.6253 49.4444 18.1714 48.9501 16.8992C48.439 15.5841 47.7551 14.4687 46.6432 13.3568C45.5313 12.2449 44.4159 11.561 43.1008 11.05C41.8286 10.5556 40.3747 10.2174 38.246 10.1204C36.1128 10.023 35.4317 10 30 10ZM30 13.6036C35.3402 13.6036 35.9728 13.624 38.0817 13.7202C40.0317 13.8091 41.0907 14.135 41.7954 14.4089C42.729 14.7717 43.3952 15.2051 44.095 15.905C44.7949 16.6048 45.2283 17.271 45.5912 18.2046C45.865 18.9093 46.1909 19.9683 46.2798 21.9183C46.376 24.0272 46.3964 24.6598 46.3964 30C46.3964 35.3402 46.376 35.9728 46.2798 38.0817C46.1909 40.0317 45.865 41.0907 45.5912 41.7954C45.2283 42.729 44.7949 43.3952 44.095 44.095C43.3952 44.7949 42.729 45.2283 41.7954 45.5912C41.0907 45.865 40.0317 46.1909 38.0817 46.2798C35.9731 46.376 35.3406 46.3964 30 46.3964C24.6594 46.3964 24.027 46.376 21.9183 46.2798C19.9683 46.1909 18.9093 45.865 18.2046 45.5912C17.271 45.2283 16.6048 44.7949 15.905 44.095C15.2051 43.3952 14.7717 42.729 14.4089 41.7954C14.135 41.0907 13.8091 40.0317 13.7202 38.0817C13.624 35.9728 13.6036 35.3402 13.6036 30C13.6036 24.6598 13.624 24.0272 13.7202 21.9183C13.8091 19.9683 14.135 18.9093 14.4089 18.2046C14.7717 17.271 15.2051 16.6048 15.905 15.905C16.6048 15.2051 17.271 14.7717 18.2046 14.4089C18.9093 14.135 19.9683 13.8091 21.9183 13.7202C24.0272 13.624 24.6598 13.6036 30 13.6036Z" fill="white"/>
<path fill-rule="evenodd" clip-rule="evenodd" d="M29.9998 36.6667C26.3178 36.6667 23.3331 33.6819 23.3331 30C23.3331 26.3181 26.3178 23.3333 29.9998 23.3333C33.6817 23.3333 36.6664 26.3181 36.6664 30C36.6664 33.6819 33.6817 36.6667 29.9998 36.6667ZM29.9998 19.7297C24.3276 19.7297 19.7295 24.3279 19.7295 30C19.7295 35.6721 24.3276 40.2703 29.9998 40.2703C35.6719 40.2703 40.27 35.6721 40.27 30C40.27 24.3279 35.6719 19.7297 29.9998 19.7297Z" fill="white"/>
<path fill-rule="evenodd" clip-rule="evenodd" d="M43.0764 19.3239C43.0764 20.6494 42.0018 21.7238 40.6763 21.7238C39.3509 21.7238 38.2764 20.6494 38.2764 19.3239C38.2764 17.9984 39.3509 16.9238 40.6763 16.9238C42.0018 16.9238 43.0764 17.9984 43.0764 19.3239Z" fill="white"/>
<defs>
<linearGradient id="paint0_linear_203_451" x1="30" y1="90" x2="90" y2="30" gradientUnits="userSpaceOnUse">
<stop stop-color="#FFD522"/>
<stop offset="0.497382" stop-color="#F1000B"/>
<stop offset="1" stop-color="#B900B3"/>
</linearGradient>
</defs>
</svg>
