<svg width="40" height="40" viewBox="0 0 40 40" fill="none" xmlns="http://www.w3.org/2000/svg">
<circle cx="20" cy="20" r="20" fill="white"/>
<path fill-rule="evenodd" clip-rule="evenodd" d="M19.9999 6.66663C16.3787 6.66663 15.9247 6.68197 14.5025 6.74686C13.0833 6.81159 12.1141 7.03701 11.266 7.36664C10.3892 7.70732 9.64564 8.16324 8.90435 8.90447C8.16311 9.64577 7.7072 10.3893 7.36651 11.2661C7.03689 12.1142 6.81147 13.0835 6.74674 14.5026C6.68185 15.9248 6.6665 16.3788 6.6665 20C6.6665 23.6211 6.68185 24.0751 6.74674 25.4973C6.81147 26.9165 7.03689 27.8857 7.36651 28.7338C7.7072 29.6106 8.16311 30.3541 8.90435 31.0954C9.64564 31.8367 10.3892 32.2926 11.266 32.6333C12.1141 32.9629 13.0833 33.1883 14.5025 33.2531C15.9247 33.3179 16.3787 33.3333 19.9999 33.3333C23.621 33.3333 24.075 33.3179 25.4972 33.2531C26.9163 33.1883 27.8856 32.9629 28.7337 32.6333C29.6105 32.2926 30.354 31.8367 31.0953 31.0954C31.8366 30.3541 32.2925 29.6106 32.6332 28.7338C32.9628 27.8857 33.1882 26.9165 33.2529 25.4973C33.3178 24.0751 33.3332 23.6211 33.3332 20C33.3332 16.3788 33.3178 15.9248 33.2529 14.5026C33.1882 13.0835 32.9628 12.1142 32.6332 11.2661C32.2925 10.3893 31.8366 9.64577 31.0953 8.90447C30.354 8.16324 29.6105 7.70732 28.7337 7.36664C27.8856 7.03701 26.9163 6.81159 25.4972 6.74686C24.075 6.68197 23.621 6.66663 19.9999 6.66663ZM19.9999 9.06902C23.56 9.06902 23.9817 9.08263 25.3876 9.14677C26.6876 9.20605 27.3936 9.42326 27.8635 9.60586C28.4858 9.84774 28.93 10.1367 29.3965 10.6033C29.8631 11.0698 30.1521 11.514 30.3939 12.1363C30.5765 12.6062 30.7937 13.3122 30.853 14.6121C30.9172 16.0181 30.9308 16.4398 30.9308 20C30.9308 23.5601 30.9172 23.9818 30.853 25.3878C30.7937 26.6878 30.5765 27.3937 30.3939 27.8636C30.1521 28.4859 29.8631 28.9301 29.3965 29.3967C28.93 29.8633 28.4858 30.1522 27.8635 30.3941C27.3936 30.5767 26.6876 30.7939 25.3876 30.8531C23.9819 30.9173 23.5602 30.9309 19.9999 30.9309C16.4394 30.9309 16.0178 30.9173 14.612 30.8531C13.312 30.7939 12.606 30.5767 12.1362 30.3941C11.5139 30.1522 11.0697 29.8633 10.6031 29.3967C10.1366 28.9301 9.84761 28.4859 9.60574 27.8636C9.42314 27.3937 9.20593 26.6878 9.14665 25.3878C9.0825 23.9818 9.0689 23.5601 9.0689 20C9.0689 16.4398 9.0825 16.0181 9.14665 14.6121C9.20593 13.3122 9.42314 12.6062 9.60574 12.1363C9.84761 11.514 10.1365 11.0698 10.6031 10.6033C11.0697 10.1367 11.5139 9.84774 12.1362 9.60586C12.606 9.42326 13.312 9.20605 14.612 9.14677C16.018 9.08263 16.4397 9.06902 19.9999 9.06902Z" fill="black"/>
<path fill-rule="evenodd" clip-rule="evenodd" d="M19.9997 24.4444C17.5451 24.4444 15.5552 22.4545 15.5552 19.9999C15.5552 17.5453 17.5451 15.5555 19.9997 15.5555C22.4543 15.5555 24.4441 17.5453 24.4441 19.9999C24.4441 22.4545 22.4543 24.4444 19.9997 24.4444ZM19.9997 13.1531C16.2182 13.1531 13.1528 16.2185 13.1528 19.9999C13.1528 23.7814 16.2182 26.8468 19.9997 26.8468C23.7811 26.8468 26.8465 23.7814 26.8465 19.9999C26.8465 16.2185 23.7811 13.1531 19.9997 13.1531Z" fill="black"/>
<path fill-rule="evenodd" clip-rule="evenodd" d="M28.7171 12.8826C28.7171 13.7663 28.0007 14.4826 27.1171 14.4826C26.2335 14.4826 25.5171 13.7663 25.5171 12.8826C25.5171 11.999 26.2335 11.2826 27.1171 11.2826C28.0007 11.2826 28.7171 11.999 28.7171 12.8826Z" fill="black"/>
</svg>
