<svg width="45" height="45" viewBox="0 0 45 45" fill="none" xmlns="http://www.w3.org/2000/svg">
<ellipse cx="22.5" cy="22.4965" rx="22.5" ry="22.4965" fill="url(#paint0_linear_180_499)"/>
<path d="M17.9279 10.4619L31.4403 7.77671C32.056 7.65435 32.63 8.12536 32.63 8.75303V29.4534C32.63 31.2156 31.3974 32.7378 29.6735 33.1045L28.4798 33.3585C26.4002 33.8008 24.4414 32.2152 24.4414 30.0894C24.4414 28.5919 25.4509 27.2826 26.8993 26.9015L30.2826 26.0113C30.7419 25.8905 31.0619 25.4753 31.0619 25.0005V15.3896C31.0619 14.9478 30.6559 14.6175 30.2232 14.7074L18.9631 17.0474C18.6167 17.1194 18.3684 17.4246 18.3684 17.7783V32.1306C18.3684 34.0582 17.0195 35.723 15.1335 36.123L14.3149 36.2966C12.1722 36.7511 10.1549 35.1171 10.1549 32.927C10.1549 31.5312 11.0944 30.3103 12.4437 29.9526L15.9852 29.0137C16.4217 28.898 16.7257 28.503 16.7257 28.0515V11.9263C16.7257 11.2139 17.2291 10.6007 17.9279 10.4619Z" fill="url(#paint1_radial_180_499)"/>
<path fill-rule="evenodd" clip-rule="evenodd" d="M45 22.4965C45 34.921 34.9264 44.993 22.5 44.993C10.0736 44.993 0 34.921 0 22.4965C0 10.072 10.0736 0 22.5 0C34.9264 0 45 10.072 45 22.4965ZM43.0088 22.5214C43.0088 33.8601 33.8267 43.0519 22.5 43.0519C11.1733 43.0519 1.99115 33.8601 1.99115 22.5214C1.99115 11.1827 11.1733 1.99084 22.5 1.99084C33.8267 1.99084 43.0088 11.1827 43.0088 22.5214Z" fill="url(#paint2_radial_180_499)"/>
<defs>
<linearGradient id="paint0_linear_180_499" x1="22.5" y1="0" x2="22.5" y2="44.993" gradientUnits="userSpaceOnUse">
<stop stop-color="white"/>
<stop offset="1" stop-color="#DDE2E7"/>
</linearGradient>
<radialGradient id="paint1_radial_180_499" cx="0" cy="0" r="1" gradientUnits="userSpaceOnUse" gradientTransform="translate(10.1549 41.3597) rotate(-55.1283) scale(45.0128 35.3501)">
<stop stop-color="#7A66FB"/>
<stop offset="0.440198" stop-color="#52A2F4"/>
<stop offset="0.702" stop-color="#FC5D6D"/>
<stop offset="1" stop-color="#E85E7B"/>
</radialGradient>
<radialGradient id="paint2_radial_180_499" cx="0" cy="0" r="1" gradientUnits="userSpaceOnUse" gradientTransform="translate(10.1549 41.3597) rotate(-55.1283) scale(45.0128 35.3501)">
<stop stop-color="#7A66FB"/>
<stop offset="0.440198" stop-color="#52A2F4"/>
<stop offset="0.702" stop-color="#FC5D6D"/>
<stop offset="1" stop-color="#E85E7B"/>
</radialGradient>
</defs>
</svg>
