<svg width="40" height="40" viewBox="0 0 40 40" fill="none" xmlns="http://www.w3.org/2000/svg">
<ellipse cx="20" cy="19.9969" rx="20" ry="19.9969" fill="white"/>
<path d="M15.9359 9.29943L27.947 6.91263C28.4943 6.80387 29.0044 7.22255 29.0044 7.78047V26.1808C29.0044 27.7472 27.9088 29.1002 26.3765 29.4262L25.3153 29.652C23.4668 30.0452 21.7257 28.6358 21.7257 26.7461C21.7257 25.4151 22.623 24.2512 23.9105 23.9125L26.9179 23.1212C27.3261 23.0138 27.6106 22.6447 27.6106 22.2227V13.6797C27.6106 13.2869 27.2497 12.9933 26.8651 13.0733L16.8561 15.1532C16.5482 15.2172 16.3274 15.4885 16.3274 15.803V28.5606C16.3274 30.274 15.1284 31.7538 13.452 32.1093L12.7244 32.2637C10.8197 32.6676 9.02655 31.2152 9.02655 29.2684C9.02655 28.0278 9.8617 26.9425 11.0611 26.6245L14.2091 25.7899C14.5971 25.6871 14.8673 25.336 14.8673 24.9347V10.6012C14.8673 9.96793 15.3147 9.42287 15.9359 9.29943Z" fill="url(#paint0_radial_96_125)"/>
<path fill-rule="evenodd" clip-rule="evenodd" d="M40 19.9969C40 31.0408 31.0457 39.9938 20 39.9938C8.95431 39.9938 0 31.0408 0 19.9969C0 8.95291 8.95431 0 20 0C31.0457 0 40 8.95291 40 19.9969ZM38.2301 20.019C38.2301 30.0978 30.0682 38.2684 20 38.2684C9.9318 38.2684 1.76991 30.0978 1.76991 20.019C1.76991 9.94015 9.9318 1.76964 20 1.76964C30.0682 1.76964 38.2301 9.94015 38.2301 20.019Z" fill="url(#paint1_radial_96_125)"/>
<defs>
<radialGradient id="paint0_radial_96_125" cx="0" cy="0" r="1" gradientUnits="userSpaceOnUse" gradientTransform="translate(9.02655 36.7642) rotate(-55.1283) scale(40.0114 31.4223)">
<stop/>
<stop offset="0.401042"/>
<stop offset="0.440198"/>
<stop offset="0.702"/>
<stop offset="1"/>
</radialGradient>
<radialGradient id="paint1_radial_96_125" cx="0" cy="0" r="1" gradientUnits="userSpaceOnUse" gradientTransform="translate(9.02655 36.7642) rotate(-55.1283) scale(40.0114 31.4223)">
<stop/>
<stop offset="0.401042"/>
<stop offset="0.440198"/>
<stop offset="0.702"/>
<stop offset="1"/>
</radialGradient>
</defs>
</svg>
