<svg width="45" height="45" viewBox="0 0 45 45" fill="none" xmlns="http://www.w3.org/2000/svg">
<circle cx="22.5" cy="22.5" r="22.5" fill="#1ED760"/>
<path d="M35.8098 19.9466C36.8069 20.5403 38.1 20.2109 38.6931 19.2108C39.2861 18.2122 38.9581 16.9206 37.9577 16.3268C29.6082 11.3707 16.396 10.9043 8.44843 13.3173C7.33553 13.6555 6.70863 14.8302 7.04574 15.9428C7.38249 17.0546 8.55801 17.6822 9.66982 17.3447C16.5937 15.2434 28.5568 15.6395 35.8098 19.9466Z" fill="white"/>
<path d="M35.5721 26.3262C36.0796 25.5023 35.8196 24.4225 34.9947 23.9143C28.0504 19.647 17.8912 18.4452 9.71934 20.9255C8.79283 21.2076 8.27006 22.1855 8.54928 23.1131C8.83142 24.0388 9.81072 24.5616 10.7387 24.2813C17.8923 22.1105 27.1126 23.187 33.1591 26.9039C33.9841 27.4107 35.0631 27.1518 35.5721 26.3262Z" fill="white"/>
<path d="M32.8194 32.4531C33.2235 31.7916 33.0153 30.9277 32.3545 30.524C26.4234 26.9002 19.0718 26.0571 10.5006 28.0161C9.74406 28.1886 9.27298 28.9407 9.4459 29.6958C9.61846 30.4497 10.3702 30.923 11.1249 30.7501C18.9575 28.9608 25.6072 29.6903 30.8911 32.9194C31.5518 33.3235 32.4153 33.116 32.8194 32.4531Z" fill="white"/>
</svg>
