<svg width="40" height="40" viewBox="0 0 40 40" fill="none" xmlns="http://www.w3.org/2000/svg">
<circle cx="20" cy="20" r="20" fill="white"/>
<path d="M31.8312 17.7303C32.7175 18.2581 33.867 17.9652 34.3941 17.0763C34.9213 16.1887 34.6297 15.0405 33.7404 14.5127C26.3187 10.1073 14.5745 9.69274 7.50999 11.8375C6.52074 12.1382 5.9635 13.1824 6.26315 14.1713C6.56248 15.1596 7.60739 15.7175 8.59567 15.4175C14.7502 13.5497 25.3841 13.9018 31.8312 17.7303Z" fill="black"/>
<path d="M31.6198 23.401C32.0709 22.6687 31.8398 21.7089 31.1066 21.2572C24.9339 17.464 15.9035 16.3958 8.63958 18.6004C7.81602 18.8512 7.35132 19.7204 7.59953 20.5449C7.85032 21.3678 8.7208 21.8325 9.54566 21.5834C15.9044 19.6537 24.1003 20.6106 29.475 23.9146C30.2082 24.365 31.1674 24.1349 31.6198 23.401Z" fill="black"/>
<path d="M29.1725 28.8472C29.5317 28.2592 29.3466 27.4913 28.7593 27.1325C23.4872 23.9114 16.9524 23.1619 9.3335 24.9032C8.66106 25.0566 8.24232 25.7251 8.39603 26.3963C8.54942 27.0665 9.21765 27.4871 9.88848 27.3334C16.8508 25.7429 22.7617 26.3914 27.4584 29.2617C28.0457 29.6209 28.8133 29.4365 29.1725 28.8472Z" fill="black"/>
</svg>
