<svg width="45" height="45" viewBox="0 0 45 45" fill="none" xmlns="http://www.w3.org/2000/svg">
<circle cx="22.5" cy="22.5" r="22.5" fill="url(#paint0_linear_202_252)"/>
<path fill-rule="evenodd" clip-rule="evenodd" d="M9.61912 29.7969L7.5 37.5L15.4187 35.4332C17.6088 36.6205 20.0628 37.2427 22.5565 37.2428H22.563C30.7951 37.2428 37.4965 30.573 37.5 22.3769C37.5016 18.4319 35.9286 14.6479 33.1271 11.8577C30.3256 9.0676 26.5254 7.50002 22.5627 7.5C14.3289 7.5 7.6287 14.1684 7.6254 22.3649C7.6222 24.9736 8.30988 27.5371 9.61912 29.7969ZM16.2391 33.0093L15.7855 32.7417L11.0867 33.9682L12.3411 29.4088L12.0455 28.9414C10.8021 26.9718 10.1441 24.6921 10.1476 22.3658C10.1503 15.5533 15.7194 10.0109 22.5676 10.0109C29.4243 10.0136 34.9806 15.5495 34.9779 22.3757C34.975 29.1888 29.4057 34.7319 22.563 34.7319H22.5581C20.3347 34.7321 18.1522 34.1371 16.2391 33.0093Z" fill="url(#paint1_linear_202_252)"/>
<path fill-rule="evenodd" clip-rule="evenodd" d="M18.8297 16.1505C18.5504 15.5318 18.2558 15.5194 17.9899 15.5088C17.7723 15.4996 17.5233 15.5001 17.2746 15.5001C16.8922 15.5101 16.5313 15.6786 16.2791 15.965C15.937 16.3368 14.9727 17.2356 14.9727 19.0637C14.9727 20.8917 16.3102 22.6584 16.4967 22.9067C16.6832 23.155 19.0787 27.0257 22.8723 28.5151C26.025 29.7528 26.6665 29.5066 27.3509 29.4447C28.0353 29.3828 29.559 28.5463 29.8701 27.6784C30.1812 26.8105 30.1811 26.0671 30.0878 25.9119C29.9945 25.7568 29.7456 25.6642 29.3723 25.4784C28.9991 25.2926 27.1643 24.3936 26.8221 24.2697C26.4799 24.1458 26.2311 24.0839 25.9822 24.4559C25.7333 24.8279 25.0185 25.6642 24.8005 25.9119C24.5825 26.1596 24.365 26.1912 23.9917 26.0054C23.6184 25.8196 22.4161 25.4271 20.9904 24.1613C19.8809 23.1765 19.1318 21.9603 18.9141 21.5883C18.6964 21.2163 18.8908 21.0154 19.078 20.8302C19.2456 20.6638 19.4512 20.3965 19.6379 20.1795C19.8245 19.9625 19.8863 19.8077 20.0108 19.5599C20.1353 19.3122 20.073 19.0948 19.9797 18.909C19.8863 18.7232 19.1616 16.8853 18.8297 16.1505Z" fill="white"/>
<defs>
<linearGradient id="paint0_linear_202_252" x1="45" y1="45" x2="45" y2="0" gradientUnits="userSpaceOnUse">
<stop stop-color="#20B038"/>
<stop offset="1" stop-color="#60D66A"/>
</linearGradient>
<linearGradient id="paint1_linear_202_252" x1="37.5" y1="37.5" x2="37.5" y2="7.5" gradientUnits="userSpaceOnUse">
<stop stop-color="#F9F9F9"/>
<stop offset="1" stop-color="white"/>
</linearGradient>
</defs>
</svg>
