<svg width="40" height="40" viewBox="0 0 40 40" fill="none" xmlns="http://www.w3.org/2000/svg">
<circle cx="20" cy="20" r="20" fill="white"/>
<path d="M32.7512 13.7043C32.4431 12.5794 31.536 11.6896 30.3892 11.3874C28.3182 10.8334 19.9827 10.8334 19.9827 10.8334C19.9827 10.8334 11.6472 10.8502 9.57622 11.4042C8.42945 11.7064 7.5223 12.5962 7.21421 13.721C6.6665 15.7525 6.6665 20 6.6665 20C6.6665 20 6.6665 24.2476 7.23133 26.2958C7.53942 27.4207 8.44656 28.3105 9.59333 28.6127C11.6644 29.1667 19.9998 29.1667 19.9998 29.1667C19.9998 29.1667 28.3353 29.1667 30.4063 28.6127C31.5531 28.3105 32.4603 27.4207 32.7683 26.2958C33.3332 24.2644 33.3332 20 33.3332 20C33.3332 20 33.3161 15.7525 32.7512 13.7043Z" fill="black"/>
<path d="M17.3296 23.9286L24.2444 20L17.3296 16.0714V23.9286Z" fill="white"/>
</svg>
