<svg width="45" height="45" viewBox="0 0 45 45" fill="none" xmlns="http://www.w3.org/2000/svg">
<circle cx="22.5" cy="22.5" r="22.5" fill="#FF0000"/>
<path d="M36.8453 15.4172C36.4987 14.1518 35.4782 13.1508 34.1881 12.8108C31.8582 12.1875 22.4807 12.1875 22.4807 12.1875C22.4807 12.1875 13.1033 12.2064 10.7734 12.8297C9.48331 13.1696 8.46277 14.1707 8.11617 15.4361C7.5 17.7215 7.5 22.5 7.5 22.5C7.5 22.5 7.5 27.2785 8.13543 29.5828C8.48203 30.8482 9.50257 31.8492 10.7927 32.1892C13.1226 32.8125 22.5 32.8125 22.5 32.8125C22.5 32.8125 31.8774 32.8125 34.2073 32.1892C35.4974 31.8492 36.518 30.8482 36.8646 29.5828C37.5 27.2974 37.5 22.5 37.5 22.5C37.5 22.5 37.4807 17.7215 36.8453 15.4172Z" fill="white"/>
<path d="M19.4961 26.9196L27.2753 22.5L19.4961 18.0804V26.9196Z" fill="#FF0000"/>
</svg>
