<svg width="45" height="45" viewBox="0 0 45 45" fill="none" xmlns="http://www.w3.org/2000/svg">
<path d="M22.5 45C34.9264 45 45 34.9264 45 22.5C45 10.0736 34.9264 0 22.5 0C10.0736 0 0 10.0736 0 22.5C0 34.9264 10.0736 45 22.5 45Z" fill="#FF0000"/>
<path d="M22.5 12.238C28.1592 12.238 32.762 16.8408 32.762 22.5C32.762 28.1592 28.1592 32.762 22.5 32.762C16.8408 32.762 12.238 28.1592 12.238 22.5C12.238 16.8408 16.8408 12.238 22.5 12.238ZM22.5 11.25C16.2856 11.25 11.25 16.2856 11.25 22.5C11.25 28.7144 16.2856 33.75 22.5 33.75C28.7144 33.75 33.75 28.7144 33.75 22.5C33.75 16.2856 28.7144 11.25 22.5 11.25Z" fill="white"/>
<path d="M19.125 28.6875L28.6875 22.231L19.125 16.3125V28.6875Z" fill="white"/>
</svg>
