<svg xmlns="http://www.w3.org/2000/svg" viewBox="0 0 2000 2000"><defs><style>.cls-1{fill:#fff;}</style></defs><g id="Capa_2" data-name="Capa 2"><polygon class="cls-1" points="1354.27 719.32 1430.84 747.09 1403.1 823.65 1379.74 815.21 1307.23 849.14 921.57 1029.61 922.6 1018.73 923.93 1014.97 957.32 922.92 986.6 909.21 965.12 901.45 1049.77 667.83 956.01 669.17 874.06 670.35 850.89 670.67 1376.4 581.73 1457.42 580.58 1458.58 661.99 1206.07 665.63 1136.87 666.6 1061.66 874.1 1271.42 775.93 1346.49 740.82 1354.27 719.32"/><polygon class="cls-1" points="1142.1 585.34 627.04 672.52 625.9 592.71 1142.1 585.34"/><path class="cls-1" d="M1195,1333.31l-514,87,172.59-1.86,0,0,517.64-5.61-1.38-81.4Z"/><polygon class="cls-1" points="1059.46 1000.06 1039.6 1009.27 1059.16 999.93 1059.46 1000.06"/><polygon class="cls-1" points="1063.37 1088.01 1001.18 1116.83 1152.58 1301.24 1061.78 1316.62 940.92 1169.41 882.24 1336.68 947.28 1335.99 872.56 1348.64 781.55 1364.03 781.51 1364.05 778.58 1364.53 697.02 1378.36 542.06 1404.58 541 1340.4 675.03 1338.95 845.25 896.17 863.26 847.27 892.62 767.52 919.24 754.99 929.32 750.26 973.68 729.39 989.14 735.08 860.96 1092.07 822.3 1199.76 772.75 1337.74 808.23 1337.26 864.66 1180.12 902.54 1074.61 1039.6 1009.27 1059.46 1000.06 1059.9 1000.21 1211.21 1056.95 1265.78 901.42 1336.33 867.75 1359.14 876.31 1259.1 1161.43 1063.37 1088.01"/><polygon class="cls-1" points="1059.9 1000.21 1059.46 1000.06 1059.76 999.92 1059.9 1000.21"/></g></svg>