<svg xmlns="http://www.w3.org/2000/svg" xmlns:xlink="http://www.w3.org/1999/xlink" viewBox="0 0 2000 2000"><defs><style>.cls-1{fill:#c4c4c4;}.cls-2{mask:url(#mask);}.cls-3{fill:none;stroke:#9ec41a;stroke-opacity:0.5;stroke-width:3px;}</style><mask id="mask" x="-922.43" y="-210.69" width="3762.08" height="2420.74" maskUnits="userSpaceOnUse"><g id="mask0_96_53" data-name="mask0 96 53"><rect class="cls-1" x="-27.07" y="237.44" width="2133" height="1594"/></g></mask></defs><g id="Capa_2" data-name="Capa 2"><rect x="-89.11" y="-27.4" width="2250.2" height="2105.41"/></g><g id="Capa_1" data-name="Capa 1"><g class="cls-2"><path class="cls-3" d="M2532,26.3c-340.18,96.85-873.51,292.84-602.18,911.54,345.28,787.34,1189.05,581.08,814.31,1188.77"/><path class="cls-3" d="M2413.6,78.06c-340.18,96.85-873.52,292.84-602.19,911.54,345.28,787.34,1189.06,581.08,814.31,1188.77"/><path class="cls-3" d="M2292.84,104.73c-340.18,96.84-873.52,292.84-602.19,911.54C2035.93,1803.61,2879.71,1597.35,2505,2205"/><path class="cls-3" d="M2171.27,109c-340.18,96.85-873.52,292.84-602.19,911.54,345.29,787.34,1189.06,581.08,814.31,1188.77"/><path class="cls-3" d="M2049.89,95.39c-340.18,96.85-873.52,292.84-602.18,911.54C1793,1794.27,2636.76,1588,2262,2195.7"/><path class="cls-3" d="M1929.1,69.3c-340.18,96.85-873.52,292.84-602.19,911.54C1672.2,1768.18,2516,1561.92,2141.22,2169.62"/><path class="cls-3" d="M1808.84,35.51c-340.18,96.85-873.52,292.84-602.19,911.54,345.29,787.34,1189.06,581.08,814.31,1188.77"/><path class="cls-3" d="M1688.9-2c-340.18,96.84-873.52,292.84-602.19,911.54C1432,1696.87,2275.77,1490.61,1901,2098.3"/><path class="cls-3" d="M1569-40.16C1228.83,56.68,695.49,252.68,966.82,871.38c345.29,787.34,1189.06,581.08,814.31,1188.77"/><path class="cls-3" d="M1449-76.61C1108.8,20.24,575.46,216.23,846.79,834.93,1192.07,1622.27,2035.84,1416,1661.1,2023.71"/><path class="cls-3" d="M1328.66-109.64C988.48-12.79,455.14,183.2,726.47,801.91c345.29,787.33,1189.06,581.07,814.31,1188.77"/><path class="cls-3" d="M1208-138C867.83-41.19,334.49,154.81,605.82,773.51c345.29,787.34,1189.06,581.08,814.31,1188.77"/><path class="cls-3" d="M1087-161C746.85-64.12,213.51,131.87,484.84,750.58c345.29,787.33,1189.06,581.07,814.32,1188.77"/><path class="cls-3" d="M965-178.13C624.85-81.28,91.51,114.71,362.84,733.41c345.29,787.34,1189.06,581.08,814.31,1188.77"/><path class="cls-3" d="M843.65-191.34C503.46-94.5-29.87,101.5,241.46,720.2,586.74,1507.54,1430.51,1301.28,1055.77,1909"/><path class="cls-3" d="M722.17-201.25C382-104.41-151.35,91.59,120,710.29,465.27,1497.63,1309,1291.37,934.29,1899.06"/><path class="cls-3" d="M600.63-207.41C260.45-110.56-272.89,85.43-1.56,704.13c345.28,787.34,1189.06,581.08,814.31,1188.78"/><path class="cls-3" d="M479-209.25C138.86-112.4-394.48,83.59-123.15,702.3c345.29,787.34,1189.06,581.07,814.31,1188.77"/><path class="cls-3" d="M357.46-206C17.28-109.19-516.06,86.8-244.73,705.51c345.29,787.34,1189.06,581.07,814.32,1188.77"/><path class="cls-3" d="M236-196.83C-104.21-100-637.55,96-366.22,714.72-20.93,1502.05,822.84,1295.79,448.1,1903.49"/><path class="cls-3" d="M114.7-180.33C-225.48-83.48-758.82,112.51-487.49,731.22-142.2,1518.55,701.57,1312.29,326.82,1920"/><path class="cls-3" d="M-6.13-154.73C-346.31-57.88-879.65,138.11-608.32,756.81-263,1544.15,580.74,1337.89,206,1945.58"/><path class="cls-3" d="M-126.1-117.42C-466.28-20.58-999.62,175.42-728.29,794.12-383,1581.46,460.77,1375.2,86,1982.89"/><path class="cls-3" d="M-244.38-64.68C-584.56,32.17-1117.9,228.16-846.57,846.86-501.28,1634.2,342.49,1427.94-32.26,2035.64"/></g></g></svg>