<svg width="1920" height="1594" viewBox="0 0 1920 1594" fill="none" xmlns="http://www.w3.org/2000/svg">
<mask id="mask0_96_53" style="mask-type:alpha" maskUnits="userSpaceOnUse" x="0" y="0" width="2133" height="1594">
<rect width="2133" height="1594" fill="#C4C4C4"/>
</mask>
<g mask="url(#mask0_96_53)">
<path d="M2559.1 -211.146C2218.92 -114.299 1685.59 81.6951 1956.92 700.397C2302.2 1487.74 3145.97 1281.48 2771.23 1889.17" stroke="#98FF14" stroke-opacity="0.5" stroke-width="3"/>
<path d="M2440.67 -159.385C2100.49 -62.5384 1567.15 133.455 1838.48 752.158C2183.76 1539.5 3027.54 1333.24 2652.79 1940.93" stroke="#98FF14" stroke-opacity="0.5" stroke-width="3"/>
<path d="M2319.91 -132.719C1979.73 -35.8718 1446.39 160.122 1717.72 778.824C2063 1566.17 2906.78 1359.91 2532.03 1967.6" stroke="#98FF14" stroke-opacity="0.5" stroke-width="3"/>
<path d="M2198.34 -128.496C1858.16 -31.6495 1324.82 164.344 1596.15 783.047C1941.44 1570.39 2785.21 1364.13 2410.46 1971.82" stroke="#98FF14" stroke-opacity="0.5" stroke-width="3"/>
<path d="M2076.96 -142.056C1736.78 -45.2089 1203.44 150.785 1474.78 769.487C1820.06 1556.83 2663.83 1350.57 2289.09 1958.26" stroke="#98FF14" stroke-opacity="0.5" stroke-width="3"/>
<path d="M1956.17 -168.143C1615.99 -71.2965 1082.65 124.697 1353.98 743.4C1699.27 1530.74 2543.04 1324.48 2168.29 1932.18" stroke="#98FF14" stroke-opacity="0.5" stroke-width="3"/>
<path d="M1835.91 -201.936C1495.73 -105.089 962.393 90.9044 1233.72 709.607C1579.01 1496.95 2422.78 1290.69 2048.03 1898.38" stroke="#98FF14" stroke-opacity="0.5" stroke-width="3"/>
<path d="M1715.97 -239.457C1375.79 -142.61 842.45 53.3837 1113.78 672.086C1459.07 1459.43 2302.84 1253.17 1928.09 1860.86" stroke="#98FF14" stroke-opacity="0.5" stroke-width="3"/>
<path d="M1596.08 -277.607C1255.9 -180.76 722.563 15.2334 993.893 633.936C1339.18 1421.28 2182.95 1215.02 1808.2 1822.71" stroke="#98FF14" stroke-opacity="0.5" stroke-width="3"/>
<path d="M1476.05 -314.053C1135.87 -217.206 602.526 -21.2122 873.856 597.49C1219.14 1384.83 2062.91 1178.57 1688.17 1786.27" stroke="#98FF14" stroke-opacity="0.5" stroke-width="3"/>
<path d="M1355.73 -347.081C1015.55 -250.235 482.211 -54.2409 753.541 564.462C1098.83 1351.8 1942.6 1145.54 1567.85 1753.24" stroke="#98FF14" stroke-opacity="0.5" stroke-width="3"/>
<path d="M1235.08 -375.477C894.901 -278.63 361.561 -82.6365 632.891 536.066C978.178 1323.41 1821.95 1117.15 1447.2 1724.84" stroke="#98FF14" stroke-opacity="0.5" stroke-width="3"/>
<path d="M1114.1 -398.411C773.924 -301.565 240.584 -105.571 511.914 513.132C857.201 1300.47 1700.97 1094.21 1326.23 1701.91" stroke="#98FF14" stroke-opacity="0.5" stroke-width="3"/>
<path d="M992.101 -415.575C651.921 -318.728 118.581 -122.735 389.911 495.968C735.198 1283.31 1578.97 1077.05 1204.22 1684.74" stroke="#98FF14" stroke-opacity="0.5" stroke-width="3"/>
<path d="M870.715 -428.787C530.535 -331.94 -2.80456 -135.946 268.526 482.756C613.812 1270.1 1457.58 1063.84 1082.84 1671.53" stroke="#98FF14" stroke-opacity="0.5" stroke-width="3"/>
<path d="M749.241 -438.698C409.061 -341.851 -124.279 -145.857 147.051 472.845C492.338 1260.19 1336.11 1053.93 961.362 1661.62" stroke="#98FF14" stroke-opacity="0.5" stroke-width="3"/>
<path d="M627.696 -444.854C287.516 -348.007 -245.824 -152.014 25.5061 466.689C370.793 1254.03 1214.57 1047.77 839.817 1655.47" stroke="#98FF14" stroke-opacity="0.5" stroke-width="3"/>
<path d="M506.111 -446.69C165.931 -349.843 -367.409 -153.85 -96.0789 464.853C249.208 1252.2 1092.98 1045.93 718.232 1653.63" stroke="#98FF14" stroke-opacity="0.5" stroke-width="3"/>
<path d="M384.534 -443.48C44.3535 -346.633 -488.986 -150.64 -217.656 468.063C127.631 1255.41 971.403 1049.14 596.655 1656.84" stroke="#98FF14" stroke-opacity="0.5" stroke-width="3"/>
<path d="M263.043 -434.271C-77.1367 -337.424 -610.476 -141.43 -339.146 477.272C6.1405 1264.61 849.913 1058.35 475.165 1666.05" stroke="#98FF14" stroke-opacity="0.5" stroke-width="3"/>
<path d="M141.77 -417.772C-198.41 -320.925 -731.749 -124.931 -460.419 493.771C-115.132 1281.11 728.64 1074.85 353.892 1682.55" stroke="#98FF14" stroke-opacity="0.5" stroke-width="3"/>
<path d="M20.9428 -392.176C-319.237 -295.329 -852.577 -99.3353 -581.247 519.367C-235.96 1306.71 607.812 1100.45 233.064 1708.14" stroke="#98FF14" stroke-opacity="0.5" stroke-width="3"/>
<path d="M-99.026 -354.868C-439.206 -258.022 -972.546 -62.0278 -701.216 556.675C-355.929 1344.02 487.844 1137.76 113.096 1745.45" stroke="#98FF14" stroke-opacity="0.5" stroke-width="3"/>
<path d="M-217.308 -302.124C-557.488 -205.277 -1090.83 -9.2837 -819.497 609.419C-474.211 1396.76 369.562 1190.5 -5.18614 1798.2" stroke="#98FF14" stroke-opacity="0.5" stroke-width="3"/>
</g>
</svg>
