<svg width="182" height="166" viewBox="0 0 182 166" fill="none" xmlns="http://www.w3.org/2000/svg">
<path d="M160.769 27.4265L175.906 32.9161L170.422 48.0507L165.804 46.3823L151.47 53.0896L75.232 88.7654L75.4356 86.6146L75.6985 85.8713L82.2991 67.6747L88.0873 64.9644L83.841 63.4304L100.575 17.2478L82.0402 17.5127L65.8401 17.746L61.2598 17.8092L165.144 0.227328L181.16 0L181.389 16.0933L131.473 16.8129L117.793 17.0046L102.925 58.0238L144.391 38.6173L159.231 31.6767L160.769 27.4265Z" fill="white"/>
<path d="M118.827 0.940918L17.0086 18.1749L16.7832 2.39784L118.827 0.940918Z" fill="white"/>
<path d="M77.6025 26.3531L77.5847 26.4915L77.0352 26.2878L77.6025 26.3531Z" fill="white"/>
<path d="M129.285 148.802L27.6758 166L61.7938 165.632L164.122 164.523L163.849 148.432L129.285 148.802Z" fill="white"/>
<path d="M102.49 82.9239L98.5645 84.7446L102.431 82.8982L102.49 82.9239Z" fill="white"/>
<path d="M103.263 100.31L90.9696 106.007L120.899 142.462L102.949 145.502L79.0572 116.402L67.4572 149.468L80.3145 149.331L65.5436 151.832L47.5525 154.875L47.5446 154.878L46.9654 154.973L30.8424 157.707L0.209543 162.891L0 150.203L26.4954 149.917L60.1449 62.3867L63.7052 52.7201L69.5091 36.9549L74.7715 34.4779L76.7641 33.5429L85.5333 29.4172L88.5895 30.5421L63.2505 101.113L55.6081 122.401L45.8129 149.677L52.8267 149.583L63.9819 118.519L71.4702 97.6612L98.5645 84.7446L102.491 82.924L102.577 82.9536L132.489 94.1701L143.276 63.4246L157.223 56.7686L161.732 58.4608L141.956 114.824L103.263 100.31Z" fill="white"/>
<path d="M102.578 82.9538L102.49 82.924L102.55 82.8962L102.578 82.9538Z" fill="white"/>
</svg>
